<svg xmlns="http://www.w3.org/2000/svg" viewBox="0 0 512 512">
  <defs>
    <linearGradient id="bg" x1="0" y1="0" x2="0" y2="1">
      <stop offset="0" stop-color="#1e3a8a"/>
      <stop offset="1" stop-color="#1e1b4b"/>
    </linearGradient>
  </defs>
  <rect width="512" height="512" fill="url(#bg)"/>
  <g fill="#ffffff">
    <!-- hanger -->
    <circle cx="256" cy="118" r="16"/>
    <!-- bell dome + skirt -->
    <path d="M256 128
             C 168 128 136 184 136 246
             L 136 272
             C 136 308 100 324 84 346
             L 96 356
             C 140 356 172 344 186 320
             L 326 320
             C 340 344 372 356 416 356
             L 428 346
             C 412 324 376 308 376 272
             L 376 246
             C 376 184 344 128 256 128 Z"/>
    <!-- clapper -->
    <circle cx="256" cy="386" r="28"/>
  </g>
</svg>
